<?xml version="1.0" standalone="no"?>
<!DOCTYPE svg PUBLIC "-//W3C//DTD SVG 20010904//EN"
 "http://www.w3.org/TR/2001/REC-SVG-20010904/DTD/svg10.dtd">
<svg version="1.0" xmlns="http://www.w3.org/2000/svg"
 width="366.000000pt" height="366.000000pt" viewBox="0 0 366.000000 366.000000"
 preserveAspectRatio="xMidYMid meet">
<metadata>
Created by potrace 1.14, written by Peter Selinger 2001-2017
</metadata>
<g transform="translate(0.000000,366.000000) scale(0.100000,-0.100000)"
fill="#000000" stroke="none">
<path d="M820 3636 c-11 -5 -20 -14 -21 -20 -1 -6 -2 -55 -3 -108 -2 -90 -1
-99 20 -117 12 -11 25 -17 28 -13 11 10 37 11 30 1 -3 -5 0 -9 6 -9 6 0 8 -5
5 -10 -4 -6 -11 -8 -16 -5 -5 3 -6 0 -3 -8 3 -8 16 -19 29 -25 21 -10 23 -9
20 9 -5 25 11 25 18 -1 3 -11 2 -20 -2 -20 -4 0 -16 -7 -27 -16 -18 -14 -18
-15 4 -4 12 6 22 9 23 8 1 -2 2 -110 4 -240 l3 -237 -58 -45 -58 -46 -99 0
-98 0 0 -158 c0 -86 -4 -166 -9 -177 -6 -12 -5 -20 2 -23 7 -2 7 -13 2 -33 -5
-18 -5 -29 1 -29 6 0 7 -6 3 -12 -11 -18 -12 -48 -2 -48 5 0 6 -6 2 -12 -12
-19 -12 -48 0 -48 6 0 6 -4 -1 -11 -7 -7 -8 -21 -3 -40 5 -18 5 -29 -1 -29 -6
0 -6 -6 0 -18 5 -10 6 -24 1 -33 -5 -8 -5 -21 0 -29 4 -7 4 -24 -1 -37 -5 -15
-5 -23 2 -23 6 0 8 -4 5 -9 -7 -11 4 -71 13 -68 3 1 7 -2 9 -8 2 -5 12 -13 23
-17 12 -5 17 -13 13 -19 -4 -8 -9 -7 -16 2 -6 10 -7 6 -3 -10 6 -20 4 -23 -9
-18 -10 4 -15 3 -11 -3 4 -6 0 -16 -7 -23 -10 -10 -13 -47 -13 -135 0 -71 -4
-122 -10 -122 -5 0 -5 -4 1 -10 6 -6 8 -33 4 -65 -3 -30 -3 -55 2 -55 4 0 3
-12 -3 -27 -7 -19 -6 -28 2 -33 8 -6 7 -9 -2 -13 -10 -4 -10 -6 -2 -6 9 -1 10
-8 2 -28 -7 -19 -6 -28 2 -33 8 -6 7 -9 -2 -13 -10 -4 -10 -6 -2 -6 9 -1 10
-8 2 -28 -7 -19 -6 -28 2 -33 8 -6 7 -9 -2 -13 -10 -4 -10 -6 -2 -6 9 -1 10
-8 2 -28 -7 -19 -7 -29 0 -31 6 -2 8 -9 4 -15 -10 -17 -11 -47 -1 -47 5 0 6
-6 2 -12 -11 -18 -12 -48 -2 -48 5 0 6 -6 2 -12 -11 -18 -12 -48 -2 -48 5 0 6
-6 2 -12 -11 -18 -12 -48 -2 -48 5 0 6 -6 2 -12 -11 -18 -12 -48 -2 -48 5 0 6
-6 2 -12 -11 -18 -12 -48 -2 -48 5 0 6 -6 2 -12 -11 -18 -12 -48 -2 -48 5 0 6
-6 2 -12 -11 -18 -12 -48 -2 -48 5 0 6 -6 2 -12 -11 -18 -12 -48 -2 -48 5 0 6
-6 2 -12 -11 -18 -12 -48 -2 -48 5 0 6 -6 2 -12 -11 -18 -12 -48 -2 -48 5 0 6
-6 2 -12 -11 -18 -12 -48 -2 -48 5 0 6 -6 2 -12 -11 -18 -12 -48 -2 -48 5 0 4
-9 -2 -20 -6 -11 -7 -20 -2 -20 11 0 9 -30 -2 -50 -7 -12 -6 -13 4 -3 11 10
17 9 32 -4 10 -9 18 -22 18 -30 0 -8 4 -12 8 -9 5 3 22 -9 38 -26 16 -17 22
-27 14 -23 -8 5 -12 5 -8 0 4 -4 18 -13 30 -19 12 -6 28 -22 34 -34 6 -13 15
-24 20 -25 5 -1 8 -5 7 -10 -5 -12 15 -8 23 5 5 8 11 6 19 -6 11 -14 14 -14
18 -2 6 15 47 11 47 -6 0 -5 -10 -4 -23 2 -21 11 -21 10 -3 -4 21 -17 36 -13
36 10 0 8 5 12 10 9 6 -4 7 -12 3 -18 -4 -7 0 -6 10 2 9 7 17 10 17 7 0 -4 9
-2 20 4 16 9 20 8 20 -5 0 -9 -4 -13 -10 -10 -5 3 -10 2 -10 -3 0 -5 15 -9 34
-8 19 0 32 5 29 9 -3 5 -11 6 -19 3 -8 -3 -14 0 -14 5 0 6 9 9 20 6 11 -3 23
-1 26 4 3 6 11 6 17 2 15 -10 38 -10 54 0 6 4 14 3 18 -2 3 -6 13 -7 23 -4 22
9 72 7 96 -3 14 -5 17 -4 12 4 -5 8 -2 10 9 6 10 -4 12 -10 7 -18 -11 -14 -12
-47 -1 -40 5 2 5 12 2 21 -5 12 -3 14 7 8 8 -5 11 -4 7 1 -3 6 -2 16 2 23 6
10 11 9 23 -3 11 -10 19 -11 26 -4 12 12 71 17 78 6 3 -4 14 -3 25 2 15 9 19
7 19 -5 0 -9 -4 -13 -10 -10 -5 3 -10 2 -10 -3 0 -5 15 -9 34 -8 19 0 32 5 29
9 -3 5 -11 6 -19 3 -8 -3 -14 0 -14 5 0 6 9 9 20 6 11 -3 23 -1 26 4 6 11 24
2 24 -12 0 -6 -4 -7 -10 -4 -5 3 -10 2 -10 -3 0 -5 20 -9 44 -8 25 0 43 3 41
7 -3 3 -16 5 -30 4 -27 -3 -34 9 -10 19 8 3 15 2 15 -2 0 -4 11 -8 25 -8 14
-1 23 1 21 5 -4 6 14 6 57 2 5 -1 5 -6 1 -12 -4 -8 -9 -7 -16 2 -8 12 -9 12
-6 0 5 -17 46 -22 55 -8 3 6 1 7 -5 3 -7 -4 -12 -3 -12 2 0 5 14 12 30 14 20
3 30 0 30 -8 0 -7 5 -16 12 -20 8 -5 9 -2 5 9 -3 10 -2 17 3 17 6 0 10 -6 10
-12 0 -7 5 -5 11 5 9 15 13 16 26 6 12 -10 16 -10 24 2 8 13 10 12 13 -11 1
-12 15 -14 24 -4 4 4 1 4 -7 -1 -10 -6 -12 -4 -7 4 4 7 13 10 19 8 7 -2 20 0
29 5 14 6 18 5 18 -7 0 -9 -4 -13 -10 -10 -5 3 -10 2 -10 -3 0 -5 15 -9 34 -8
19 0 32 5 29 9 -3 5 -11 6 -19 3 -8 -3 -14 0 -14 5 0 6 9 9 20 6 11 -3 23 -1
26 4 3 6 11 6 17 2 15 -10 38 -10 54 0 6 4 14 3 18 -2 3 -6 13 -7 23 -4 28 11
76 6 110 -11 32 -16 33 -16 41 6 8 20 10 21 16 6 6 -15 9 -16 29 -3 15 10 25
11 36 4 12 -9 11 -10 -5 -4 -17 5 -18 4 -7 -7 11 -11 16 -10 27 5 8 12 15 14
20 8 4 -8 12 -8 26 -1 15 9 19 7 19 -5 0 -9 -4 -13 -10 -10 -5 3 -10 2 -10 -3
0 -5 15 -9 34 -8 19 0 32 5 29 9 -3 5 -11 6 -19 3 -8 -3 -14 0 -14 5 0 6 9 9
20 6 11 -3 23 -1 26 4 3 5 11 6 17 2 16 -10 48 -10 70 0 12 6 17 3 17 -8 0 -9
-4 -13 -10 -10 -5 3 -10 2 -10 -3 0 -5 15 -9 34 -8 19 0 32 5 29 9 -3 5 -11 6
-19 3 -8 -3 -14 0 -14 5 0 6 9 9 20 6 11 -3 23 -1 26 4 4 6 11 6 18 0 7 -6 15
-9 18 -6 10 10 88 11 88 1 0 -6 4 -5 9 2 4 8 12 14 16 14 4 0 12 -6 16 -14 6
-9 9 -7 9 8 0 26 22 37 41 21 10 -10 10 -8 0 6 -8 9 -11 21 -7 24 4 4 11 1 16
-7 6 -10 10 -11 10 -3 0 7 7 10 18 7 14 -5 14 -4 2 4 -8 6 -18 8 -22 6 -13 -8
-9 6 6 21 7 8 16 11 20 8 3 -4 6 1 6 10 0 10 6 14 14 11 8 -3 17 0 22 7 4 8 3
10 -4 5 -17 -10 -15 3 4 21 14 14 16 14 30 -3 14 -18 14 -18 7 0 -4 13 -3 17
5 12 7 -4 12 -2 12 4 0 7 -7 9 -16 6 -10 -4 -14 -1 -11 6 2 7 11 13 18 12 15
-1 18 33 6 53 -9 14 9 26 26 18 6 -4 4 0 -7 9 -13 11 -17 22 -12 40 3 14 2 27
-4 31 -5 3 -7 12 -4 20 3 7 6 29 7 47 2 23 7 32 17 30 11 -2 11 1 -2 11 -10 8
-15 17 -11 20 3 4 1 7 -6 7 -7 0 -9 5 -6 10 4 6 10 8 15 5 5 -3 12 -1 15 5 4
6 1 9 -6 8 -6 -2 -14 3 -17 11 -3 9 0 11 9 6 8 -5 11 -5 7 0 -4 4 -2 15 4 24
10 13 10 14 -2 4 -17 -16 -34 -17 -24 -2 4 7 6 49 5 94 -2 70 1 85 15 93 16 9
16 10 -2 16 -16 5 -19 13 -16 44 2 20 11 45 20 55 15 16 14 17 -3 11 -13 -5
-16 -4 -11 4 4 7 2 12 -4 12 -6 0 -9 4 -5 10 3 5 13 6 22 3 11 -4 9 1 -7 17
l-23 23 24 13 c19 10 20 13 7 14 -11 0 -18 8 -18 20 0 10 8 24 18 29 16 10 16
10 -1 11 -10 0 -15 5 -12 10 3 6 3 10 -2 10 -4 0 -7 37 -5 82 2 63 7 86 20 97
16 13 16 13 -1 7 -15 -5 -17 -2 -12 15 5 16 4 19 -5 14 -8 -5 -11 -4 -7 2 3 5
7 28 8 52 2 33 6 40 18 36 13 -4 13 -2 -1 8 -12 10 -17 30 -17 78 0 35 -1 118
-1 183 0 108 -3 121 -21 137 -13 11 -18 23 -13 31 4 7 4 10 -1 6 -4 -4 -14 -3
-21 3 -11 9 -6 18 22 47 29 30 37 34 44 22 6 -9 10 -10 10 -3 0 6 -5 15 -10
18 -6 4 -10 23 -9 43 1 20 0 44 -2 52 -3 10 3 14 16 13 19 -1 19 -1 2 12 -21
15 -18 51 4 47 10 -2 9 2 -3 11 -10 8 -15 17 -11 20 3 4 1 7 -6 7 -7 0 -9 5
-6 10 4 6 10 8 15 5 5 -3 12 -1 15 5 4 6 1 9 -6 8 -6 -2 -14 3 -17 11 -3 9 0
11 8 6 8 -5 11 -4 6 3 -3 5 0 13 6 16 7 3 2 3 -11 0 -15 -4 -21 -2 -17 5 9 13
10 326 2 339 -8 14 10 25 27 17 6 -4 4 0 -5 7 -13 11 -16 31 -16 99 0 46 3 78
5 72 3 -7 9 -13 15 -13 6 0 4 8 -4 18 -21 24 -29 50 -18 57 6 4 10 1 10 -4 0
-6 5 -11 12 -11 7 0 5 7 -4 18 -9 9 -18 36 -20 59 -3 39 -2 42 17 37 20 -6 20
-6 0 10 -11 8 -17 16 -13 16 4 0 3 14 -2 30 -5 17 -5 30 -1 30 4 0 5 57 3 128
-2 70 -3 174 -4 231 l0 103 -99 99 c-76 76 -106 99 -126 100 -221 6 -1958 2
-1973 -5z m96 -259 c8 3 14 0 14 -7 0 -6 -4 -8 -10 -5 -9 6 -14 -8 -11 -27 2
-11 -17 -10 -24 1 -3 5 -1 12 4 16 6 3 9 11 7 18 -1 7 -1 9 1 5 2 -4 11 -4 19
-1z m294 -176 c0 -5 -6 -12 -12 -14 -9 -4 -9 -8 -3 -14 17 -14 41 -47 28 -40
-6 4 -13 3 -15 -3 -1 -5 -19 3 -38 20 -19 16 -31 32 -27 36 4 4 7 1 7 -6 0 -7
3 -10 7 -7 3 4 12 -2 20 -13 8 -11 19 -20 25 -20 6 0 4 8 -6 19 -9 10 -14 25
-10 35 7 17 24 22 24 7z m26 -30 c0 -11 -4 -17 -8 -15 -4 3 -8 12 -8 20 0 8 4
14 8 14 4 0 8 -9 8 -19z m-97 -61 c6 0 11 -7 11 -16 0 -9 5 -12 13 -8 8 5 7 2
-2 -9 -10 -13 -17 -15 -27 -6 -8 6 -11 16 -7 22 4 6 1 7 -6 3 -7 -5 -18 0 -26
10 -10 14 -10 21 -2 26 7 4 17 1 23 -7 6 -8 16 -15 23 -15z m131 -36 c0 -8 -5
-12 -10 -9 -6 4 -8 11 -5 16 9 14 15 11 15 -7z m-160 -40 c0 -8 -3 -14 -7 -14
-12 0 -43 33 -43 47 0 11 5 10 25 -3 14 -9 25 -23 25 -30z m114 -16 c-4 -6 -3
-8 3 -5 5 3 17 -3 26 -13 24 -29 2 -34 -33 -9 -33 25 -37 35 -17 42 17 6 29
-2 21 -15z m-39 -44 c23 -15 35 -44 17 -44 -8 0 -62 48 -62 55 0 10 22 4 45
-11z m302 -18 c-9 -24 6 -28 19 -5 7 14 14 18 18 10 4 -6 2 -11 -3 -11 -6 0
-11 -5 -11 -11 0 -5 6 -7 13 -3 9 5 9 4 0 -6 -16 -17 -45 -22 -37 -7 5 9 4 9
-6 0 -7 -6 -20 -9 -29 -6 -11 4 -10 1 4 -10 11 -8 24 -12 30 -9 18 11 45 12
45 1 0 -5 -4 -8 -9 -5 -4 3 -17 -2 -27 -10 -19 -15 -18 -15 1 -6 22 12 75 -10
75 -31 0 -8 3 -9 8 -1 9 14 52 25 52 14 0 -5 16 -7 36 -5 26 4 33 2 28 -7 -4
-7 -4 -10 1 -6 4 4 17 3 29 -3 19 -9 19 -9 4 4 -18 15 -13 31 6 20 16 -10 46
-11 46 -1 0 5 8 4 19 -1 10 -6 21 -8 24 -5 3 3 11 3 17 -1 8 -5 8 -11 -2 -23
-10 -14 -10 -15 2 -5 11 10 16 9 28 -5 10 -12 10 -10 -1 9 -21 35 -10 45 15
14 11 -14 24 -25 30 -25 6 0 0 9 -13 21 -20 17 -21 20 -5 14 11 -3 23 0 28 7
5 8 8 9 8 2 0 -6 12 -10 28 -8 17 2 35 -5 48 -17 l22 -20 14 20 c15 21 45 22
57 2 5 -7 12 -13 17 -14 5 -1 8 -5 6 -9 -1 -5 2 -8 7 -8 4 0 20 -12 34 -26 25
-25 26 -28 12 -55 -12 -23 -13 -27 -2 -23 9 3 13 -2 12 -17 -2 -23 -25 -41
-25 -19 0 6 6 8 13 4 6 -4 8 -3 4 1 -14 16 -33 13 -33 -5 0 -10 3 -18 6 -18
21 2 40 -3 37 -9 -10 -15 -17 -84 -9 -79 5 3 9 -2 9 -10 0 -8 -6 -13 -12 -10
-6 2 -12 -2 -12 -9 0 -7 7 -11 14 -8 12 5 12 -1 -1 -32 -18 -42 -21 -58 -6
-35 5 8 12 11 16 7 4 -3 2 -13 -4 -20 -7 -8 -8 -18 -4 -22 4 -5 -1 -5 -10 -2
-10 4 -18 3 -18 -2 0 -5 10 -11 22 -14 22 -6 22 -6 3 -27 -16 -18 -16 -20 -2
-14 14 5 15 2 6 -22 -15 -43 -36 -67 -53 -61 -10 4 -13 1 -10 -7 3 -8 -3 -20
-14 -28 -16 -10 -76 -13 -285 -13 l-265 0 -44 41 c-38 35 -44 46 -46 85 -2 68
-10 311 -11 342 -1 23 -5 27 -32 27 l-30 0 2 77 c2 69 5 80 28 103 14 14 34
24 44 22 10 -2 17 0 16 5 -3 15 1 33 7 33 3 0 4 -6 1 -14z m-327 -68 c0 -15
-23 -8 -46 13 -12 12 -20 28 -17 36 4 11 12 8 34 -13 16 -15 29 -31 29 -36z
m-61 -26 c5 -10 6 -24 1 -32 -12 -20 -37 3 -42 40 -4 25 -2 28 14 19 9 -5 22
-17 27 -27z m176 18 c3 -5 -1 -10 -9 -10 -9 0 -16 5 -16 10 0 6 4 10 9 10 6 0
13 -4 16 -10z m756 -25 c5 4 6 -1 3 -10 -5 -12 -10 -13 -20 -4 -8 6 -11 16 -7
22 5 8 8 7 11 -1 2 -7 8 -10 13 -7z m-782 -39 c16 -16 19 -26 11 -31 -11 -7
-60 31 -60 47 0 16 27 7 49 -16z m-53 -39 c26 -23 27 -47 0 -47 -20 0 -56 39
-50 55 8 21 18 19 50 -8z m-256 -37 c0 -5 -7 -10 -15 -10 -8 0 -15 5 -15 10 0
6 7 10 15 10 8 0 15 -4 15 -10z m639 -1283 c0 -9 -2 -9 -5 0 -4 8 -11 7 -23
-5 -10 -9 -16 -20 -15 -23 2 -3 -3 -6 -11 -6 -21 0 -19 5 12 32 28 23 44 24
42 2z m50 -6 c1 15 19 16 154 15 120 -1 151 -4 149 -14 -1 -8 2 -11 8 -7 6 3
8 10 5 15 -7 12 139 8 147 -5 4 -5 13 -10 20 -10 7 0 14 -10 14 -23 1 -12 5
-26 9 -30 5 -4 5 1 2 11 -4 9 -2 17 3 17 6 0 10 -9 10 -21 0 -15 4 -19 16 -15
12 4 15 2 11 -9 -4 -8 -2 -17 3 -20 13 -8 0 -36 -14 -28 -8 4 -8 2 1 -7 6 -7
9 -19 6 -28 -4 -9 -2 -13 4 -9 5 3 10 -1 10 -9 0 -8 -6 -13 -14 -10 -7 3 -13
1 -13 -4 0 -6 7 -10 15 -10 13 0 14 -4 5 -20 -6 -11 -7 -20 -3 -20 4 0 1 -5
-7 -10 -13 -8 -12 -10 3 -10 19 0 23 -15 7 -25 -6 -4 -7 -11 -4 -17 5 -7 1 -9
-9 -5 -10 3 -17 3 -17 -2 0 -5 10 -11 22 -14 17 -5 19 -9 9 -21 -9 -11 -9 -15
1 -20 7 -3 4 -5 -7 -3 -16 3 -21 -1 -21 -19 0 -12 4 -20 8 -18 5 3 6 10 3 15
-4 5 -2 9 4 9 15 0 23 -18 11 -25 -8 -5 -8 -11 0 -19 7 -10 4 -21 -12 -42 -12
-16 -15 -23 -8 -16 8 6 18 12 23 12 4 0 5 -6 0 -12 -4 -7 -8 -19 -10 -27 -1
-8 -20 -33 -42 -55 l-40 -40 -267 -1 c-266 0 -266 0 -295 24 -16 13 -26 27
-23 32 3 5 -2 9 -10 9 -8 0 -22 12 -30 27 -12 24 -12 29 3 41 9 7 10 11 3 7
-9 -5 -11 0 -8 19 2 13 -1 27 -7 31 -7 3 -3 4 9 1 12 -2 21 2 21 10 0 7 -4 11
-9 8 -18 -11 -27 7 -16 36 5 17 13 28 17 26 4 -3 7 6 7 19 0 13 -4 21 -8 19
-5 -3 -6 -9 -3 -14 3 -4 -2 -13 -10 -20 -16 -14 -20 -3 -6 19 5 7 5 25 2 40
-5 18 -3 30 8 39 9 8 11 11 5 8 -7 -3 -11 7 -12 27 -1 30 0 31 14 13 8 -11 14
-15 14 -9 0 5 -9 18 -20 28 -14 12 -17 22 -11 34 6 9 5 23 0 33 -5 10 -6 18
-1 18 5 0 14 11 21 24 9 16 20 22 37 20 16 -1 28 5 35 18 9 16 13 17 27 6 12
-10 14 -10 8 0 -4 6 -2 12 3 12 6 0 11 -5 11 -12 0 -6 3 -8 6 -5 4 4 1 14 -7
24 -9 11 -10 14 -1 9 7 -4 12 -2 13 6 1 7 5 2 9 -12 5 -14 8 -18 9 -9z m651
-1403 c0 -5 -9 -4 -20 2 -11 6 -20 12 -20 14 0 2 9 2 20 -1 11 -3 20 -9 20
-15z"/>
<path d="M1446 2882 c-3 -5 1 -9 9 -9 8 0 12 4 9 9 -3 4 -7 8 -9 8 -2 0 -6 -4
-9 -8z"/>
<path d="M1510 2862 c0 -5 7 -9 15 -9 8 0 12 4 9 9 -3 4 -9 8 -15 8 -5 0 -9
-4 -9 -8z"/>
<path d="M1590 2841 c0 -6 4 -13 10 -16 6 -3 7 1 4 9 -7 18 -14 21 -14 7z"/>
<path d="M1616 2837 c3 -10 9 -15 12 -12 3 3 0 11 -7 18 -10 9 -11 8 -5 -6z"/>
<path d="M1651 2847 c2 -1 13 -9 24 -17 19 -14 19 -14 6 3 -7 9 -18 17 -24 17
-6 0 -8 -1 -6 -3z"/>
<path d="M1750 2840 c0 -5 5 -10 10 -10 6 0 10 5 10 10 0 6 -4 10 -10 10 -5 0
-10 -4 -10 -10z"/>
<path d="M1786 2841 c-3 -4 4 -7 14 -6 27 2 33 10 10 12 -11 1 -22 -2 -24 -6z"/>
<path d="M1926 2839 c2 -4 16 -6 30 -4 18 2 24 -2 20 -11 -3 -7 -1 -16 3 -18
5 -3 8 4 7 16 -1 17 -8 22 -33 23 -18 1 -30 -2 -27 -6z"/>
<path d="M2055 2833 c-7 -20 -7 -23 7 -23 6 0 8 3 5 7 -4 3 1 11 9 18 15 11
15 12 1 12 -9 0 -19 -7 -22 -14z"/>
<path d="M1550 2819 c0 -5 5 -7 10 -4 6 3 10 8 10 11 0 2 -4 4 -10 4 -5 0 -10
-5 -10 -11z"/>
<path d="M1653 2811 c0 -11 5 -18 9 -15 4 3 5 11 1 19 -7 21 -12 19 -10 -4z"/>
<path d="M2090 2818 c0 -4 6 -8 13 -8 8 0 7 -4 -3 -11 -12 -9 -12 -10 3 -5 13
4 20 0 24 -14 3 -11 8 -20 12 -21 3 0 14 -2 24 -4 15 -3 16 -1 6 11 -6 8 -14
12 -17 9 -6 -5 -38 37 -35 46 1 3 -5 6 -13 6 -7 0 -14 -4 -14 -9z"/>
<path d="M1710 2806 c0 -2 7 -7 16 -10 8 -3 12 -2 9 4 -6 10 -25 14 -25 6z"/>
<path d="M2076 2767 c3 -10 9 -15 12 -12 3 3 0 11 -7 18 -10 9 -11 8 -5 -6z"/>
<path d="M2150 2729 c0 -5 5 -7 10 -4 6 3 10 8 10 11 0 2 -4 4 -10 4 -5 0 -10
-5 -10 -11z"/>
<path d="M2156 2613 c-6 -14 -5 -15 5 -6 7 7 10 15 7 18 -3 3 -9 -2 -12 -12z"/>
<path d="M2129 2543 c-13 -16 -12 -17 4 -4 9 7 17 15 17 17 0 8 -8 3 -21 -13z"/>
<path d="M2150 2499 c0 -5 5 -7 10 -4 6 3 10 8 10 11 0 2 -4 4 -10 4 -5 0 -10
-5 -10 -11z"/>
<path d="M2127 2459 c7 -7 15 -10 18 -7 3 3 -2 9 -12 12 -14 6 -15 5 -6 -5z"/>
<path d="M1493 2431 c0 -11 5 -18 9 -15 4 3 5 11 1 19 -7 21 -12 19 -10 -4z"/>
<path d="M1490 2396 c0 -2 8 -10 18 -17 15 -13 16 -12 3 4 -13 16 -21 21 -21
13z"/>
<path d="M1476 2351 c-3 -4 1 -16 8 -26 10 -14 15 -15 21 -5 5 9 4 11 -3 6
-11 -6 -16 6 -13 27 1 10 -7 9 -13 -2z"/>
<path d="M2150 2339 c0 -5 5 -7 10 -4 6 3 10 8 10 11 0 2 -4 4 -10 4 -5 0 -10
-5 -10 -11z"/>
<path d="M1788 1453 c7 -3 16 -2 19 1 4 3 -2 6 -13 5 -11 0 -14 -3 -6 -6z"/>
<path d="M1827 1449 c7 -7 15 -10 18 -7 3 3 -2 9 -12 12 -14 6 -15 5 -6 -5z"/>
<path d="M1956 1443 c-6 -14 -5 -15 5 -6 7 7 10 15 7 18 -3 3 -9 -2 -12 -12z"/>
<path d="M1983 1445 c0 -8 4 -12 9 -9 5 3 6 10 3 15 -9 13 -12 11 -12 -6z"/>
<path d="M1673 1438 c1 -7 -4 -12 -11 -10 -8 1 -11 -2 -7 -8 5 -8 11 -8 21 1
7 6 11 15 8 20 -8 13 -14 11 -11 -3z"/>
<path d="M1753 1443 c4 -3 1 -13 -6 -22 -11 -14 -10 -14 6 -2 20 15 22 31 5
31 -6 0 -8 -3 -5 -7z"/>
<path d="M2059 1437 c7 -7 14 -8 21 -1 6 6 2 10 -12 11 -16 2 -18 -1 -9 -10z"/>
<path d="M2103 1433 c-15 -5 -17 -23 -4 -23 5 0 11 7 15 15 3 8 4 15 3 14 -1
0 -8 -3 -14 -6z"/>
<path d="M1551 1412 c-7 -14 -6 -19 4 -19 7 0 11 7 7 15 -4 11 -1 13 8 7 9 -5
11 -4 6 3 -10 16 -14 15 -25 -6z"/>
<path d="M2006 1422 c-2 -4 9 -7 25 -7 31 -1 30 7 -1 12 -10 1 -21 -1 -24 -5z"/>
<path d="M1484 1388 c-3 -4 -2 -8 3 -8 4 0 1 -5 -7 -10 -12 -7 -10 -9 7 -7 12
0 19 5 16 11 -4 5 0 7 9 4 8 -4 15 -1 15 6 0 13 -36 16 -43 4z"/>
<path d="M2035 1379 c-3 -4 2 -6 10 -5 21 3 28 13 10 13 -9 0 -18 -4 -20 -8z"/>
<path d="M2150 1361 c0 -10 19 -25 25 -20 1 2 -3 10 -11 17 -8 7 -14 8 -14 3z"/>
<path d="M1510 1339 c0 -5 5 -7 10 -4 6 3 10 8 10 11 0 2 -4 4 -10 4 -5 0 -10
-5 -10 -11z"/>
<path d="M1478 1323 c7 -3 16 -2 19 1 4 3 -2 6 -13 5 -11 0 -14 -3 -6 -6z"/>
<path d="M1487 1293 c3 -7 6 -13 8 -13 2 0 5 6 8 13 3 8 -1 14 -8 14 -7 0 -11
-6 -8 -14z"/>
<path d="M2145 1299 c-4 -6 -5 -12 -2 -15 2 -3 7 2 10 11 7 17 1 20 -8 4z"/>
<path d="M1490 1225 c0 -8 4 -15 10 -15 5 0 7 7 4 15 -4 8 -8 15 -10 15 -2 0
-4 -7 -4 -15z"/>
<path d="M2150 1219 c0 -5 5 -7 10 -4 6 3 10 8 10 11 0 2 -4 4 -10 4 -5 0 -10
-5 -10 -11z"/>
<path d="M2126 1178 c3 -4 9 -8 15 -8 5 0 9 4 9 8 0 5 -7 9 -15 9 -8 0 -12 -4
-9 -9z"/>
<path d="M2140 1026 c0 -2 7 -9 15 -16 9 -7 15 -8 15 -2 0 5 -7 12 -15 16 -8
3 -15 4 -15 2z"/>
<path d="M1490 985 c0 -8 4 -15 10 -15 5 0 7 7 4 15 -4 8 -8 15 -10 15 -2 0
-4 -7 -4 -15z"/>
<path d="M1476 947 c3 -10 9 -15 12 -12 3 3 0 11 -7 18 -10 9 -11 8 -5 -6z"/>
<path d="M817 3353 c-10 -9 -9 -23 1 -23 5 0 9 7 9 15 0 17 -1 18 -10 8z"/>
<path d="M3035 2969 c-4 -6 -5 -12 -2 -15 2 -3 7 2 10 11 7 17 1 20 -8 4z"/>
<path d="M3030 2670 c0 -5 5 -10 11 -10 5 0 7 5 4 10 -3 6 -8 10 -11 10 -2 0
-4 -4 -4 -10z"/>
<path d="M3030 2609 c0 -5 5 -7 10 -4 6 3 10 8 10 11 0 2 -4 4 -10 4 -5 0 -10
-5 -10 -11z"/>
<path d="M3030 2439 c0 -5 5 -7 10 -4 6 3 10 8 10 11 0 2 -4 4 -10 4 -5 0 -10
-5 -10 -11z"/>
<path d="M3030 2399 c0 -5 5 -7 10 -4 6 3 10 8 10 11 0 2 -4 4 -10 4 -5 0 -10
-5 -10 -11z"/>
<path d="M3030 2359 c0 -5 5 -7 10 -4 6 3 10 8 10 11 0 2 -4 4 -10 4 -5 0 -10
-5 -10 -11z"/>
<path d="M3030 2319 c0 -5 5 -7 10 -4 6 3 10 8 10 11 0 2 -4 4 -10 4 -5 0 -10
-5 -10 -11z"/>
<path d="M3030 2279 c0 -5 5 -7 10 -4 6 3 10 8 10 11 0 2 -4 4 -10 4 -5 0 -10
-5 -10 -11z"/>
<path d="M3030 2239 c0 -5 5 -7 10 -4 6 3 10 8 10 11 0 2 -4 4 -10 4 -5 0 -10
-5 -10 -11z"/>
<path d="M3020 2026 c0 -2 8 -10 18 -17 15 -13 16 -12 3 4 -13 16 -21 21 -21
13z"/>
<path d="M3030 1969 c0 -5 5 -7 10 -4 6 3 10 8 10 11 0 2 -4 4 -10 4 -5 0 -10
-5 -10 -11z"/>
<path d="M2980 1860 c-8 -5 -10 -10 -5 -10 6 0 17 5 25 10 8 5 11 10 5 10 -5
0 -17 -5 -25 -10z"/>
<path d="M3030 1359 c0 -5 5 -7 10 -4 6 3 10 8 10 11 0 2 -4 4 -10 4 -5 0 -10
-5 -10 -11z"/>
<path d="M3030 1329 c0 -5 5 -7 10 -4 6 3 10 8 10 11 0 2 -4 4 -10 4 -5 0 -10
-5 -10 -11z"/>
<path d="M3030 1239 c0 -5 5 -7 10 -4 6 3 10 8 10 11 0 2 -4 4 -10 4 -5 0 -10
-5 -10 -11z"/>
<path d="M3030 1199 c0 -5 5 -7 10 -4 6 3 10 8 10 11 0 2 -4 4 -10 4 -5 0 -10
-5 -10 -11z"/>
<path d="M3030 1159 c0 -5 5 -7 10 -4 6 3 10 8 10 11 0 2 -4 4 -10 4 -5 0 -10
-5 -10 -11z"/>
<path d="M3030 1119 c0 -5 5 -7 10 -4 6 3 10 8 10 11 0 2 -4 4 -10 4 -5 0 -10
-5 -10 -11z"/>
<path d="M3030 830 c0 -5 5 -10 11 -10 5 0 7 5 4 10 -3 6 -8 10 -11 10 -2 0
-4 -4 -4 -10z"/>
<path d="M3030 759 c0 -5 5 -7 10 -4 6 3 10 8 10 11 0 2 -4 4 -10 4 -5 0 -10
-5 -10 -11z"/>
<path d="M3030 719 c0 -5 5 -7 10 -4 6 3 10 8 10 11 0 2 -4 4 -10 4 -5 0 -10
-5 -10 -11z"/>
<path d="M3030 679 c0 -5 5 -7 10 -4 6 3 10 8 10 11 0 2 -4 4 -10 4 -5 0 -10
-5 -10 -11z"/>
<path d="M3030 639 c0 -5 5 -7 10 -4 6 3 10 8 10 11 0 2 -4 4 -10 4 -5 0 -10
-5 -10 -11z"/>
<path d="M3030 429 c0 -5 5 -7 10 -4 6 3 10 8 10 11 0 2 -4 4 -10 4 -5 0 -10
-5 -10 -11z"/>
<path d="M3030 399 c0 -5 5 -7 10 -4 6 3 10 8 10 11 0 2 -4 4 -10 4 -5 0 -10
-5 -10 -11z"/>
<path d="M692 170 c7 -11 17 -20 22 -20 5 0 1 9 -9 20 -10 11 -20 20 -22 20
-2 0 2 -9 9 -20z"/>
<path d="M2956 155 c-11 -8 -17 -17 -14 -20 2 -3 13 4 23 15 21 23 18 25 -9 5z"/>
<path d="M751 104 c0 -11 3 -14 6 -6 3 7 2 16 -1 19 -3 4 -6 -2 -5 -13z"/>
<path d="M2855 69 c-4 -6 -5 -12 -2 -15 2 -3 7 2 10 11 7 17 1 20 -8 4z"/>
<path d="M1190 57 c0 -2 6 -10 14 -16 11 -9 16 -9 22 1 4 7 4 10 -1 6 -4 -4
-14 -3 -22 3 -7 6 -13 9 -13 6z"/>
<path d="M1249 48 c11 -15 11 -18 -3 -18 -9 0 -16 -4 -16 -8 0 -4 8 -8 19 -8
21 0 22 20 1 39 -12 10 -12 9 -1 -5z"/>
<path d="M1380 44 c-9 -10 -9 -14 -1 -14 6 0 11 4 11 10 0 5 7 7 15 4 8 -4 15
-4 15 -1 0 13 -30 14 -40 1z"/>
<path d="M2150 57 c0 -2 6 -10 14 -16 11 -9 16 -9 22 1 4 7 4 10 -1 6 -4 -4
-14 -3 -22 3 -7 6 -13 9 -13 6z"/>
<path d="M2209 48 c11 -15 11 -18 -3 -18 -9 0 -16 -4 -16 -8 0 -4 8 -8 19 -8
21 0 22 20 1 39 -12 10 -12 9 -1 -5z"/>
<path d="M2723 50 c-13 -5 -23 -11 -23 -14 0 -7 40 6 46 15 6 10 6 10 -23 -1z"/>
<path d="M1070 40 c0 -5 5 -10 10 -10 6 0 10 5 10 10 0 6 -4 10 -10 10 -5 0
-10 -4 -10 -10z"/>
<path d="M1137 43 c-9 -8 12 -33 27 -33 6 0 3 5 -8 11 -15 9 -16 13 -5 20 8 5
9 9 3 9 -6 0 -14 -3 -17 -7z"/>
<path d="M1170 40 c0 -5 5 -10 11 -10 5 0 7 5 4 10 -3 6 -8 10 -11 10 -2 0 -4
-4 -4 -10z"/>
<path d="M1670 45 c0 -5 5 -17 10 -25 5 -8 10 -10 10 -5 0 6 -5 17 -10 25 -5
8 -10 11 -10 5z"/>
<path d="M1850 33 c8 -13 20 -19 29 -15 13 5 13 6 0 10 -7 3 -20 10 -28 16
-12 9 -12 8 -1 -11z"/>
<path d="M2030 40 c0 -5 5 -10 10 -10 6 0 10 5 10 10 0 6 -4 10 -10 10 -5 0
-10 -4 -10 -10z"/>
<path d="M2097 43 c-9 -8 12 -33 27 -33 6 0 3 5 -8 11 -15 9 -16 13 -5 20 8 5
9 9 3 9 -6 0 -14 -3 -17 -7z"/>
<path d="M2130 40 c0 -5 5 -10 11 -10 5 0 7 5 4 10 -3 6 -8 10 -11 10 -2 0 -4
-4 -4 -10z"/>
<path d="M2333 30 c-1 -11 2 -22 6 -24 4 -3 7 4 6 14 -2 27 -10 33 -12 10z"/>
<path d="M2510 40 c0 -5 5 -10 10 -10 6 0 10 5 10 10 0 6 -4 10 -10 10 -5 0
-10 -4 -10 -10z"/>
<path d="M2670 40 c0 -5 5 -10 10 -10 6 0 10 5 10 10 0 6 -4 10 -10 10 -5 0
-10 -4 -10 -10z"/>
<path d="M2755 41 c-3 -5 0 -13 6 -17 8 -5 9 -3 4 6 -6 10 -4 12 9 7 10 -4 15
-3 11 3 -8 13 -22 13 -30 1z"/>
<path d="M2390 31 c0 -6 4 -13 10 -16 6 -3 7 1 4 9 -7 18 -14 21 -14 7z"/>
<path d="M2833 25 c0 -8 4 -12 9 -9 5 3 6 10 3 15 -9 13 -12 11 -12 -6z"/>
<path d="M934 22 c4 -3 14 -7 22 -8 9 -1 13 0 10 4 -4 3 -14 7 -22 8 -9 1 -13
0 -10 -4z"/>
<path d="M1640 20 c-12 -7 -10 -9 7 -7 12 0 19 5 17 9 -6 10 -6 10 -24 -2z"/>
</g>
</svg>
